<svg width="120" height="120" viewBox="0 0 120 120" fill="none" xmlns="http://www.w3.org/2000/svg">
    <g transform="translate(0, 10)">
        <!-- Steam -->
        <rect x="35" y="-2" width="4" height="16" rx="2" fill="#C5A572"/>
        <rect x="51" y="-9" width="4" height="24" rx="2" fill="#C5A572"/>
        <rect x="67" y="-2" width="4" height="16" rx="2" fill="#C5A572"/>
        <!-- Mug Body (white filled) -->
        <path d="M17.5 20H90C92.76 20 95 22.24 95 25V75C95 88.8 83.8 100 70 100H35C21.2 100 10 88.8 10 75V25C10 22.24 12.24 20 15 20Z" fill="#FFFFFF" stroke="#1A202C" stroke-width="4"/>
        <!-- Mug Handle -->
        <path d="M95 35C108 35 115 45 115 60C115 75 108 85 95 85" stroke="#1A202C" stroke-width="4" stroke-linecap="round"/>
    </g>
</svg>
